<svg width="25" height="25" viewBox="0 0 25 25" fill="none" xmlns="http://www.w3.org/2000/svg">
<path d="M8.28737 13.0542H10.2404V20.7258C10.2404 20.8773 10.369 21 10.5277 21H13.8391C13.9978 21 14.1265 20.8773 14.1265 20.7258V13.0903H16.3716C16.5176 13.0903 16.6404 12.9858 16.6571 12.8475L16.998 10.0232C17.0074 9.94545 16.9816 9.86763 16.9271 9.80934C16.8726 9.75099 16.7945 9.71759 16.7126 9.71759H14.1266V7.94718C14.1266 7.41349 14.4277 7.14286 15.0218 7.14286C15.1064 7.14286 16.7126 7.14286 16.7126 7.14286C16.8714 7.14286 17 7.02008 17 6.86867V4.27622C17 4.12476 16.8714 4.00203 16.7126 4.00203H14.3824C14.366 4.00126 14.3295 4 14.2757 4C13.8713 4 12.4659 4.07573 11.3558 5.05022C10.1258 6.1301 10.2967 7.42309 10.3376 7.64727V9.71754H8.28737C8.12862 9.71754 8 9.84027 8 9.99173V12.78C8 12.9314 8.12862 13.0542 8.28737 13.0542Z" fill="#7E838D"/>
</svg>
