<svg width="25" height="25" viewBox="0 0 25 25" fill="none" xmlns="http://www.w3.org/2000/svg">
<path d="M6.5544 4.5H18.4466C19.5764 4.5 20.5 5.42402 20.5 6.55392V18.447C20.5 19.5766 19.5764 20.5 18.4466 20.5H6.5544C5.42459 20.5 4.5 19.5766 4.5 18.447V6.55392C4.5 5.42402 5.42459 4.5 6.5544 4.5ZM16.1558 6.27705C15.7591 6.27705 15.4355 6.60193 15.4355 6.99844V8.72199C15.4355 9.11866 15.7591 9.44279 16.1558 9.44279H17.9639C18.36 9.44279 18.6843 9.11866 18.6843 8.72199V6.99844C18.6843 6.60193 18.36 6.27705 17.9639 6.27705H16.1558ZM18.6911 11.2662H17.2834C17.4169 11.7022 17.4892 12.1621 17.4892 12.6401C17.4892 15.3007 15.2617 17.4586 12.515 17.4586C9.76907 17.4586 7.54149 15.3007 7.54149 12.6401C7.54149 12.1621 7.61456 11.7022 7.74741 11.2662H6.27867V18.0258C6.27867 18.3758 6.56448 18.6606 6.91419 18.6606H18.0559C18.4059 18.6606 18.6911 18.3758 18.6911 18.0258V11.2662ZM12.5151 9.35191C10.7412 9.35191 9.30229 10.7455 9.30229 12.4662C9.30229 14.1851 10.7412 15.5798 12.5151 15.5798C14.2899 15.5798 15.7289 14.1851 15.7289 12.4662C15.7289 10.7455 14.2899 9.35191 12.5151 9.35191Z" fill="#7E838D"/>
</svg>
