<svg width="134" height="40" viewBox="0 0 134 40" fill="none" xmlns="http://www.w3.org/2000/svg">
<path fill-rule="evenodd" clip-rule="evenodd" d="M20.9317 24.5352L13.0868 6.59552L13.0717 6.56096C12.5981 5.47898 11.5238 4.72417 10.274 4.72417H8.77414C8.71232 4.72417 8.65645 4.76104 8.63172 4.81818L0.00961726 24.5352C0.00320575 24.5486 0 24.5638 0 24.5804C0 24.6417 0.0499181 24.6919 0.111285 24.6919H3.70264C3.76447 24.6919 3.81988 24.6555 3.84507 24.5988L5.80516 20.1391H13.1834C13.1834 18.4406 11.815 17.0637 10.127 17.0637H7.14333L10.4627 9.11936L14.0907 17.7669L17.0802 24.5984C17.1054 24.6555 17.1613 24.6919 17.2231 24.6919H20.8301C20.8914 24.6919 20.9413 24.6417 20.9413 24.5804C20.9413 24.5638 20.9377 24.5486 20.9317 24.5352Z" fill="#64696F"/>
<path fill-rule="evenodd" clip-rule="evenodd" d="M50.1526 16.7398C51.456 16.1707 52.3829 15.1905 52.3829 13.2459C52.3829 10.9059 50.4041 9.43549 47.3888 9.43549H39.771C39.6849 9.43549 39.6149 9.50599 39.6149 9.59262V24.5353C39.6149 24.6219 39.6849 24.6919 39.771 24.6919H47.4832C51.1734 24.6919 53.074 23.1266 53.074 20.5658C53.074 18.5894 51.99 17.2614 50.1526 16.7398ZM43.0858 12.2026H46.8077C48.1426 12.2026 48.8493 12.9137 48.8493 13.8468C48.8493 14.9689 48.1266 15.6172 46.8077 15.6172H43.0858V12.2026ZM47.2473 21.9252H43.0858V18.1153H47.2473C48.7238 18.1153 49.5403 18.795 49.5403 20.0438C49.5403 21.0875 48.7549 21.9252 47.2473 21.9252Z" fill="#64696F"/>
<path fill-rule="evenodd" clip-rule="evenodd" d="M99.2286 9.11984C94.6586 9.11984 91.1254 12.5501 91.1254 17.0877C91.1254 21.6409 94.659 25.0716 99.2286 25.0716C103.799 25.0716 107.332 21.6409 107.332 17.0877C107.332 12.5501 103.799 9.11984 99.2286 9.11984ZM99.2286 22.0045C96.4492 22.0045 94.6114 19.9175 94.6114 17.0877C94.6114 14.2735 96.4492 12.1709 99.2286 12.1709C102.008 12.1709 103.845 14.2735 103.845 17.0877C103.845 19.9175 102.008 22.0045 99.2286 22.0045Z" fill="#64696F"/>
<path fill-rule="evenodd" clip-rule="evenodd" d="M112.431 9.43592H110.66C110.574 9.43592 110.504 9.50596 110.504 9.5926V24.5357C110.504 24.6223 110.573 24.6919 110.66 24.6919H113.834C113.921 24.6919 113.991 24.6223 113.991 24.5357V11.0041C113.99 10.1377 113.292 9.43592 112.431 9.43592Z" fill="#64696F"/>
<path fill-rule="evenodd" clip-rule="evenodd" d="M123.063 9.43592H121.307C121.221 9.43592 121.151 9.50596 121.151 9.5926V15.6246H115.351C115.351 17.236 116.65 18.5424 118.251 18.5424H121.151V24.5357C121.151 24.6223 121.221 24.6919 121.307 24.6919H124.466C124.552 24.6919 124.622 24.6223 124.622 24.5357V11.0041C124.622 10.1377 123.924 9.43592 123.063 9.43592Z" fill="#64696F"/>
<path fill-rule="evenodd" clip-rule="evenodd" d="M86.3937 9.43592H78.7301C78.7132 9.43592 78.6958 9.43638 78.6788 9.4373C78.0148 9.4585 77.456 9.89765 77.2532 10.5018L77.2522 10.5022L77.2454 10.5248C77.2431 10.5322 77.2408 10.54 77.238 10.5474L72.8283 24.5467C72.8246 24.5564 72.8228 24.5689 72.8228 24.5804C72.8228 24.6421 72.8732 24.6914 72.9341 24.6914H75.2835C75.9635 24.6914 76.5648 24.2486 76.7696 23.5961L80.273 12.4399H84.4817V24.5357C84.4817 24.6223 84.5517 24.6919 84.6374 24.6919H87.796C87.8821 24.6919 87.9521 24.6223 87.9521 24.5357V11.0045C87.9531 10.1377 87.2547 9.43592 86.3937 9.43592Z" fill="#64696F"/>
<path fill-rule="evenodd" clip-rule="evenodd" d="M70.1927 9.43595H67.1862C67.1111 9.43595 67.0405 9.47189 66.997 9.53318L59.8587 19.4277V11.0041C59.8587 10.1378 59.1608 9.43549 58.2994 9.43549H56.5435C56.4574 9.43549 56.3878 9.50553 56.3878 9.59216V24.5352C56.3878 24.6219 56.4574 24.6915 56.5435 24.6915H59.5354C59.6101 24.6915 59.6801 24.656 59.7245 24.5947L66.8628 14.7002V24.5352C66.8628 24.6219 66.932 24.6915 67.0186 24.6915H70.1932C70.2793 24.6915 70.3489 24.6219 70.3489 24.5352V9.59216C70.348 9.50553 70.2788 9.43595 70.1927 9.43595Z" fill="#64696F"/>
<path fill-rule="evenodd" clip-rule="evenodd" d="M31.9279 16.6812L36.5648 9.60875C36.5762 9.59124 36.5831 9.57004 36.5831 9.54746C36.5831 9.48571 36.5332 9.43549 36.4718 9.43549H32.962C32.9093 9.43549 32.8608 9.46175 32.8319 9.50599L28.8632 15.5541H26.5335V11.0041C26.5335 10.1378 25.8356 9.43549 24.9746 9.43549H23.2183C23.1327 9.43549 23.0626 9.50599 23.0626 9.59262V24.5353C23.0626 24.6214 23.1327 24.6919 23.2183 24.6919H26.3774C26.4635 24.6919 26.5335 24.6214 26.5335 24.5353V18.3365H29.2062L33.256 24.6205C33.2844 24.6657 33.3339 24.6919 33.387 24.6919H36.8661H36.867C36.9284 24.6919 36.9779 24.6422 36.9779 24.5804C36.9779 24.5574 36.971 24.5362 36.9596 24.5187L31.9279 16.6812Z" fill="#64696F"/>
<path d="M124.622 4.62191C127.159 4.62191 129.216 2.55242 129.216 0H129.406C129.406 2.55242 131.463 4.62191 134 4.62191V4.8136C131.463 4.8136 129.406 6.88263 129.406 9.43551H129.216C129.216 6.88263 127.159 4.8136 124.622 4.8136V4.62191Z" fill="#77BC1F"/>
<path d="M15.5223 33.2363C16.0879 33.2363 16.5357 33.3985 16.8659 33.7224C17.1957 34.0464 17.3605 34.4901 17.3605 35.0551C17.3605 35.6191 17.1957 36.062 16.8659 36.3836C16.5357 36.7048 16.0879 36.8656 15.5223 36.8656H14.1671V38.5346C14.1671 38.6342 14.1475 38.7033 14.1085 38.742C14.0696 38.7812 14.0004 38.8005 13.9024 38.8005H13.4582C13.3593 38.8005 13.2892 38.7812 13.248 38.742C13.2059 38.7033 13.1857 38.6342 13.1857 38.5346V33.5026C13.1857 33.404 13.2059 33.3349 13.248 33.2957C13.2892 33.2561 13.3593 33.2367 13.4582 33.2367H15.5223V33.2363ZM15.4288 35.9481C15.7142 35.9481 15.9363 35.8698 16.0947 35.7131C16.2532 35.5555 16.3324 35.3371 16.3324 35.0546C16.3324 34.7721 16.2532 34.5514 16.0947 34.392C15.9363 34.2325 15.7142 34.1524 15.4288 34.1524H14.1671V35.9477H15.4288V35.9481Z" fill="#77BC1F"/>
<path d="M22.5012 38.542C22.5639 38.7143 22.5039 38.801 22.3221 38.801H21.9173C21.7565 38.801 21.6434 38.7853 21.5784 38.7535C21.5133 38.7226 21.4652 38.6599 21.4341 38.5659L21.076 37.5549H18.9263L18.5604 38.5659C18.5288 38.6599 18.4811 38.7226 18.4161 38.7535C18.3511 38.7848 18.238 38.801 18.0772 38.801H17.7186C17.5368 38.801 17.4768 38.7143 17.5396 38.542L19.4864 33.4477C19.523 33.3593 19.5629 33.2998 19.6073 33.2713C19.6512 33.2422 19.7204 33.2284 19.8138 33.2284H20.2265C20.3199 33.2284 20.3904 33.2422 20.4371 33.2713C20.4838 33.2998 20.5228 33.356 20.5539 33.4399L22.5012 38.542ZM20.2113 35.0938C20.1646 34.9523 20.1257 34.8021 20.0946 34.6426C20.0634 34.4836 20.0428 34.3597 20.0323 34.2707L20.0245 34.1376H19.97C19.97 34.4353 19.9127 34.7514 19.7987 35.0855L19.1988 36.7471H20.8035L20.2113 35.0938Z" fill="#77BC1F"/>
<path d="M26.9412 34.7178C26.9412 35.2767 26.7332 35.6712 26.3183 35.9002C26.8477 36.1301 27.1124 36.5803 27.1124 37.249C27.1124 37.7771 26.9421 38.1867 26.6023 38.4793C26.262 38.7724 25.7495 38.9185 25.064 38.9185C23.8229 38.9185 23.0494 38.4793 22.743 37.602C22.6807 37.4347 22.7352 37.3195 22.9065 37.2568L23.3347 37.108C23.4286 37.0771 23.4982 37.073 23.5449 37.0965C23.5921 37.1204 23.6333 37.1789 23.6695 37.2729C23.7578 37.5241 23.9085 37.7079 24.1215 37.8255C24.3344 37.943 24.6486 38.0019 25.064 38.0019C25.744 38.0019 26.0843 37.7356 26.0843 37.2029C26.0843 36.9568 26.0193 36.7647 25.8897 36.6269C25.7596 36.4882 25.5705 36.4186 25.3209 36.4186H24.2309C24.132 36.4186 24.0633 36.3988 24.0244 36.3601C23.985 36.3209 23.9658 36.2518 23.9658 36.1527V35.7997C23.9658 35.7007 23.985 35.6311 24.0244 35.5919C24.0633 35.5532 24.132 35.5334 24.2309 35.5334H25.2046C25.4432 35.5334 25.6259 35.468 25.7532 35.3375C25.8805 35.2067 25.9442 35.0265 25.9442 34.7966C25.9442 34.2897 25.63 34.0362 25.0017 34.0362C24.6225 34.0362 24.3358 34.0938 24.1412 34.209C23.9461 34.3238 23.8046 34.5067 23.7162 34.7574C23.68 34.8514 23.6388 34.9099 23.5921 34.9339C23.5449 34.9574 23.4753 34.9532 23.3819 34.9214L22.9532 34.7726C22.7819 34.709 22.7274 34.5943 22.7897 34.4275C23.0961 33.5547 23.854 33.1188 25.064 33.1188C25.6717 33.1188 26.1365 33.2588 26.458 33.5372C26.7799 33.8178 26.9412 34.2104 26.9412 34.7178Z" fill="#77BC1F"/>
<path d="M31.8711 33.2363C32.0319 33.2363 32.0763 33.3252 32.0035 33.5026L29.6825 38.5651C29.6408 38.6651 29.5928 38.7286 29.5383 38.7577C29.4838 38.7867 29.3862 38.8005 29.2461 38.8005H28.7167C28.5399 38.8005 28.4955 38.7121 28.5839 38.5342L29.2617 37.1707L27.3767 33.5026C27.2832 33.3252 27.3272 33.2363 27.509 33.2363H27.9688C28.0934 33.2363 28.179 33.239 28.2257 33.2441C28.2724 33.2496 28.3178 33.2695 28.3622 33.3031C28.4062 33.3372 28.4465 33.393 28.4827 33.4713L29.7682 36.0735L30.9442 33.4713C30.9909 33.3616 31.0404 33.2953 31.0921 33.2713C31.1439 33.2478 31.2529 33.2363 31.4191 33.2363H31.8711Z" fill="#77BC1F"/>
<path d="M37.4871 33.2363C37.5856 33.2363 37.6548 33.2556 37.6937 33.2953C37.7326 33.3344 37.7518 33.4035 37.7518 33.5026V38.5342C37.7518 38.6337 37.7326 38.7028 37.6937 38.742C37.6548 38.7812 37.5856 38.8005 37.4871 38.8005H37.0896C36.9912 38.8005 36.9225 38.7812 36.8835 38.742C36.8446 38.7028 36.8249 38.6337 36.8249 38.5342V36.1435C36.8249 35.673 36.8872 35.1537 37.0118 34.5841H36.9573C36.8066 35.0385 36.5936 35.5164 36.3189 36.0182L35.5554 37.3734C35.4776 37.4987 35.3764 37.5619 35.2518 37.5619H35.0022C34.9193 37.5619 34.8584 37.5499 34.8195 37.5264C34.7806 37.5029 34.7398 37.4522 34.6986 37.3734L33.9196 36.0099C33.6805 35.6025 33.4809 35.1265 33.3197 34.5837H33.2652C33.3746 35.1164 33.4291 35.6389 33.4291 36.1509V38.5333C33.4291 38.6328 33.4094 38.7019 33.3705 38.7411C33.3316 38.7803 33.2624 38.7996 33.1644 38.7996H32.7903C32.6913 38.7996 32.6213 38.7803 32.58 38.7411C32.5384 38.7019 32.5178 38.6328 32.5178 38.5333V33.5026C32.5178 33.4035 32.5384 33.3344 32.58 33.2953C32.6213 33.2556 32.6913 33.2363 32.7903 33.2363H33.1328C33.2418 33.2363 33.321 33.2492 33.3705 33.2754C33.42 33.3017 33.4653 33.3565 33.507 33.4399L35.1268 36.3555L36.7471 33.4473C36.7938 33.3588 36.8391 33.3012 36.8835 33.275C36.9275 33.2487 37.0012 33.2358 37.1057 33.2358H37.4871V33.2363Z" fill="#77BC1F"/>
<path d="M42.7212 33.2363C42.8197 33.2363 42.8902 33.2556 42.9314 33.2953C42.9731 33.3344 42.9941 33.4035 42.9941 33.5026V38.5342C42.9941 38.6337 42.9731 38.7028 42.9314 38.742C42.8902 38.7812 42.8197 38.8005 42.7212 38.8005H42.2774C42.1785 38.8005 42.1098 38.7812 42.0709 38.742C42.032 38.7028 42.0127 38.6337 42.0127 38.5342V36.4417H39.7069V38.5342C39.7069 38.6337 39.6872 38.7028 39.6487 38.742C39.6098 38.7812 39.5406 38.8005 39.4422 38.8005H38.9984C38.8995 38.8005 38.8294 38.7812 38.7877 38.742C38.7461 38.7028 38.7255 38.6337 38.7255 38.5342V33.5026C38.7255 33.4035 38.7461 33.3344 38.7877 33.2953C38.8294 33.2556 38.8995 33.2363 38.9984 33.2363H39.4422C39.5406 33.2363 39.6098 33.2556 39.6487 33.2953C39.6872 33.3344 39.7069 33.4035 39.7069 33.5026V35.5247H42.0127V33.5026C42.0127 33.4035 42.032 33.3344 42.0709 33.2953C42.1098 33.2556 42.1785 33.2363 42.2774 33.2363H42.7212Z" fill="#77BC1F"/>
<path d="M44.2325 38.8005C44.1336 38.8005 44.0635 38.7812 44.0218 38.742C43.9801 38.7028 43.9595 38.6337 43.9595 38.5342V33.5026C43.9595 33.4035 43.9801 33.3344 44.0218 33.2953C44.0635 33.2556 44.1336 33.2363 44.2325 33.2363H44.6763C44.7747 33.2363 44.8439 33.2556 44.8828 33.2953C44.9217 33.3344 44.941 33.4035 44.941 33.5026V35.1721H46.2965C46.8621 35.1721 47.31 35.333 47.6397 35.6541C47.9695 35.9753 48.1343 36.4182 48.1343 36.9826C48.1343 37.5471 47.9695 37.9909 47.6397 38.3153C47.31 38.6388 46.8621 38.801 46.2965 38.801H44.2325V38.8005ZM44.941 36.0891V37.884H46.2026C46.4884 37.884 46.7105 37.8043 46.869 37.6448C47.027 37.4854 47.1062 37.2647 47.1062 36.9822C47.1062 36.6997 47.027 36.4804 46.869 36.3237C46.7105 36.167 46.4884 36.0887 46.2026 36.0887H44.941V36.0891ZM48.9601 33.5026C48.9601 33.4035 48.9798 33.3344 49.0187 33.2953C49.0576 33.2556 49.1263 33.2363 49.2252 33.2363H49.669C49.7674 33.2363 49.8366 33.2556 49.8755 33.2953C49.9145 33.3344 49.9337 33.4035 49.9337 33.5026V38.5342C49.9337 38.6337 49.9145 38.7028 49.8755 38.742C49.8366 38.7812 49.7674 38.8005 49.669 38.8005H49.2252C49.1263 38.8005 49.0576 38.7812 49.0187 38.742C48.9798 38.7028 48.9601 38.6337 48.9601 38.5342V33.5026Z" fill="#77BC1F"/>
<path d="M55.0043 33.2363C55.1033 33.2363 55.172 33.2556 55.2113 33.2952C55.2498 33.3344 55.2695 33.4035 55.2695 33.5021V38.5342C55.2695 38.6337 55.2498 38.7028 55.2113 38.742C55.172 38.7812 55.1033 38.8005 55.0043 38.8005H54.5606C54.4621 38.8005 54.393 38.7812 54.354 38.742C54.3151 38.7028 54.2959 38.6337 54.2959 38.5342V36.238C54.2959 35.8412 54.3073 35.5371 54.3311 35.3251C54.354 35.1136 54.4049 34.8196 54.4827 34.4431H54.4516C54.2753 34.8979 54.0156 35.3942 53.6726 35.9325L51.8893 38.6674C51.8371 38.7567 51.7487 38.801 51.6241 38.801H51.1725C51.0736 38.801 51.0036 38.7816 50.9623 38.7425C50.9202 38.7033 50.8996 38.6342 50.8996 38.5346V33.5026C50.8996 33.404 50.9202 33.3349 50.9623 33.2957C51.0036 33.2561 51.0736 33.2367 51.1725 33.2367H51.6163C51.7148 33.2367 51.7839 33.2561 51.8229 33.2957C51.8618 33.3349 51.8815 33.404 51.8815 33.5026V35.7762C51.8815 36.173 51.8696 36.4813 51.8462 36.7011C51.8229 36.9204 51.772 37.2181 51.6942 37.5941H51.7253C51.9177 37.0978 52.1874 36.5808 52.5354 36.0426L54.2881 33.3625C54.3449 33.2787 54.4305 33.2372 54.545 33.2372H55.0043V33.2363ZM54.4671 32.0137C54.3632 32.275 54.1947 32.4792 53.9611 32.6252C53.7271 32.7713 53.4441 32.8446 53.112 32.8446C52.7795 32.8446 52.4965 32.7718 52.263 32.6252C52.0294 32.4792 51.8654 32.275 51.772 32.0137C51.7303 31.899 51.7693 31.8207 51.8893 31.7787L52.2318 31.6534C52.3669 31.617 52.4576 31.6451 52.5043 31.7396C52.6028 32.0216 52.8056 32.163 53.112 32.163C53.4179 32.163 53.6208 32.0216 53.7193 31.7396C53.766 31.6511 53.8416 31.6197 53.9451 31.6456L54.3426 31.7792C54.4099 31.8054 54.4529 31.834 54.4708 31.8654C54.4891 31.8962 54.4878 31.9455 54.4671 32.0137Z" fill="#77BC1F"/>
<path d="M62.1939 33.2363C62.2923 33.2363 62.3624 33.2556 62.4041 33.2953C62.4458 33.3344 62.4664 33.4035 62.4664 33.5026V37.884H62.8717C62.9701 37.884 63.0388 37.9033 63.0778 37.9425C63.1167 37.9817 63.1364 38.0513 63.1364 38.1503V39.7337C63.1364 39.8327 63.1167 39.9019 63.0778 39.941C63.0388 39.9802 62.9701 40 62.8717 40H62.443C62.3446 40 62.2754 39.9802 62.2365 39.941C62.1975 39.9019 62.1783 39.8327 62.1783 39.7337V38.801H58.6186V39.7337C58.6186 39.8327 58.5989 39.9019 58.5599 39.941C58.5215 39.9802 58.4523 40 58.3538 40H57.933C57.8345 40 57.7658 39.9802 57.7269 39.941C57.688 39.9019 57.6683 39.8327 57.6683 39.7337V38.1503C57.6683 38.0513 57.688 37.9817 57.7269 37.9425C57.7658 37.9033 57.8345 37.884 57.933 37.884H58.112C58.211 37.8162 58.2966 37.7324 58.3694 37.6328C58.4422 37.5338 58.516 37.3849 58.5911 37.1863C58.6666 36.9877 58.7248 36.7149 58.7665 36.3675C58.8082 36.02 58.8288 35.6062 58.8288 35.1247V33.5026C58.8288 33.4035 58.8485 33.3344 58.8874 33.2953C58.9263 33.2556 58.995 33.2363 59.0939 33.2363H62.1939ZM59.7713 34.1533V35.1173C59.7713 36.4131 59.5972 37.3352 59.2496 37.884H61.485V34.1533H59.7713Z" fill="#77BC1F"/>
<path d="M67.2173 33.2363C67.3158 33.2363 67.3858 33.2556 67.4275 33.2953C67.4692 33.3344 67.4903 33.4035 67.4903 33.5026V33.8869C67.4903 33.986 67.4692 34.0551 67.4275 34.0943C67.3858 34.1335 67.3158 34.1533 67.2173 34.1533H64.8341V35.5247H66.8514C66.9499 35.5247 67.0186 35.5445 67.0575 35.5836C67.0964 35.6228 67.1161 35.6919 67.1161 35.7915V36.1753C67.1161 36.2748 67.0964 36.3435 67.0575 36.3831C67.0186 36.4223 66.9499 36.4417 66.8514 36.4417H64.8341V37.884H67.303C67.4014 37.884 67.4706 37.9033 67.5095 37.9425C67.5484 37.9817 67.5677 38.0513 67.5677 38.1503V38.5342C67.5677 38.6337 67.5484 38.7028 67.5095 38.742C67.4706 38.7812 67.4014 38.8005 67.303 38.8005H64.1251C64.0262 38.8005 63.9562 38.7812 63.9149 38.742C63.8733 38.7028 63.8527 38.6337 63.8527 38.5342V33.5026C63.8527 33.4035 63.8733 33.3344 63.9149 33.2953C63.9562 33.2556 64.0262 33.2363 64.1251 33.2363H67.2173Z" fill="#77BC1F"/>
<path d="M70.8316 33.2363C71.3358 33.2363 71.7273 33.363 72.0076 33.6164C72.2884 33.8699 72.4285 34.2316 72.4285 34.7016C72.4285 35.2555 72.2311 35.65 71.8363 35.885V35.9159C72.3662 36.1039 72.6309 36.5564 72.6309 37.2716C72.6309 37.7527 72.4692 38.1273 72.1478 38.3964C71.8253 38.6655 71.4022 38.7996 70.8787 38.7996H68.6741C68.5752 38.7996 68.5051 38.7803 68.4639 38.7411C68.4222 38.7019 68.4016 38.6328 68.4016 38.5333V33.5026C68.4016 33.4035 68.4222 33.3344 68.4639 33.2948C68.5051 33.2556 68.5752 33.2363 68.6741 33.2363H70.8316ZM71.432 34.8427C71.432 34.3832 71.1929 34.1533 70.7152 34.1533H69.3835V35.5325H70.7152C71.1924 35.5325 71.432 35.3025 71.432 34.8427ZM71.595 37.1628C71.595 36.6716 71.3482 36.4255 70.8549 36.4255H69.383V37.8831H70.8549C71.3482 37.8835 71.595 37.6434 71.595 37.1628Z" fill="#77BC1F"/>
<path d="M76.8684 33.2363C76.9669 33.2363 77.037 33.2556 77.0787 33.2953C77.1203 33.3344 77.1414 33.4035 77.1414 33.5026V33.8869C77.1414 33.986 77.1203 34.0551 77.0787 34.0943C77.037 34.1335 76.9669 34.1533 76.8684 34.1533H74.4847V35.5247H76.5021C76.6005 35.5247 76.6692 35.5445 76.7086 35.5836C76.7475 35.6228 76.7668 35.6919 76.7668 35.7915V36.1753C76.7668 36.2748 76.7475 36.3435 76.7086 36.3831C76.6692 36.4223 76.6005 36.4417 76.5021 36.4417H74.4847V37.884H76.9545C77.0525 37.884 77.1222 37.9033 77.1611 37.9425C77.2 37.9817 77.2192 38.0513 77.2192 38.1503V38.5342C77.2192 38.6337 77.2 38.7028 77.1611 38.742C77.1222 38.7812 77.0525 38.8005 76.9545 38.8005H73.7763C73.6778 38.8005 73.6077 38.7812 73.5661 38.742C73.5244 38.7028 73.5038 38.6337 73.5038 38.5342V33.5026C73.5038 33.4035 73.5244 33.3344 73.5661 33.2953C73.6077 33.2556 73.6778 33.2363 73.7763 33.2363H76.8684Z" fill="#77BC1F"/>
<path d="M81.9697 33.2363C82.0686 33.2363 82.1369 33.2556 82.1758 33.2953C82.2152 33.3344 82.2344 33.4035 82.2344 33.5026V38.5342C82.2344 38.6337 82.2152 38.7028 82.1758 38.742C82.1369 38.7812 82.0686 38.8005 81.9697 38.8005H81.5186C81.4192 38.8005 81.351 38.7812 81.3121 38.742C81.2731 38.7028 81.2539 38.6337 81.2539 38.5342V34.1533H79.602V35.1721C79.602 35.7104 79.5741 36.1827 79.5169 36.5905C79.4596 36.9983 79.3891 37.3246 79.3066 37.5702C79.2228 37.8153 79.1111 38.0301 78.9714 38.213C78.8313 38.3959 78.6998 38.5296 78.5785 38.613C78.4557 38.6964 78.3064 38.7826 78.1301 38.8715C78.0417 38.9134 77.9708 38.925 77.9158 38.9065C77.8613 38.8886 77.816 38.8351 77.7798 38.7457L77.5769 38.3536C77.4991 38.1918 77.5407 38.072 77.7019 37.9937C77.8105 37.9416 77.8975 37.8914 77.9621 37.8448C78.028 37.7969 78.1086 37.7075 78.2075 37.5743C78.306 37.4412 78.3829 37.2831 78.4374 37.1002C78.4919 36.9177 78.5405 36.6601 78.5817 36.3283C78.6229 35.9965 78.6435 35.6108 78.6435 35.1721V33.5026C78.6435 33.4035 78.6646 33.3344 78.7062 33.2953C78.7475 33.2556 78.8175 33.2363 78.9165 33.2363H81.9697Z" fill="#77BC1F"/>
<path d="M83.1925 35.1643C83.1925 34.527 83.3858 34.0266 83.7737 33.6634C84.1602 33.3003 84.7093 33.1188 85.4205 33.1188C86.1267 33.1188 86.6735 33.3003 87.06 33.6634C87.447 34.0266 87.6407 34.527 87.6407 35.1643V36.873C87.6407 37.5107 87.447 38.0107 87.06 38.3734C86.6735 38.7369 86.1267 38.919 85.4205 38.919C84.7093 38.919 84.1602 38.7369 83.7737 38.3734C83.3858 38.0107 83.1925 37.5107 83.1925 36.873V35.1643ZM86.6666 35.1565C86.6666 34.7961 86.5595 34.5187 86.3433 34.3256C86.1276 34.1321 85.8198 34.0353 85.42 34.0353C85.0202 34.0353 84.7125 34.1307 84.4972 34.321C84.2811 34.5122 84.1744 34.7906 84.1744 35.1565V36.8803C84.1744 37.2462 84.2811 37.5245 84.4972 37.7153C84.7125 37.9061 85.0202 38.0015 85.42 38.0015C85.8198 38.0015 86.1276 37.9047 86.3433 37.7112C86.5595 37.5181 86.6666 37.2411 86.6666 36.8803V35.1565Z" fill="#77BC1F"/>
<path d="M92.5551 33.2363C92.6541 33.2363 92.7223 33.2556 92.7612 33.2953C92.8006 33.3344 92.8199 33.4035 92.8199 33.5026V38.5342C92.8199 38.6337 92.8006 38.7028 92.7612 38.742C92.7223 38.7812 92.6541 38.8005 92.5551 38.8005H92.1109C92.0125 38.8005 91.9438 38.7812 91.9048 38.742C91.8659 38.7028 91.8462 38.6337 91.8462 38.5342V34.1533H89.5798V38.5342C89.5798 38.6337 89.5601 38.7028 89.5211 38.742C89.4822 38.7812 89.414 38.8005 89.315 38.8005H88.8708C88.7724 38.8005 88.7023 38.7812 88.6606 38.742C88.6189 38.7028 88.5983 38.6337 88.5983 38.5342V33.5026C88.5983 33.4035 88.6189 33.3344 88.6606 33.2953C88.7023 33.2556 88.7724 33.2363 88.8708 33.2363H92.5551Z" fill="#77BC1F"/>
<path d="M98.9107 33.2363C99.0092 33.2363 99.0779 33.2556 99.1168 33.2953C99.1557 33.3344 99.1754 33.4035 99.1754 33.5026V38.5342C99.1754 38.6337 99.1557 38.7028 99.1168 38.742C99.0779 38.7812 99.0092 38.8005 98.9107 38.8005H98.5141C98.4148 38.8005 98.3465 38.7812 98.3076 38.742C98.2687 38.7028 98.249 38.6337 98.249 38.5342V36.1435C98.249 35.673 98.3113 35.1537 98.4354 34.5841H98.3813C98.2311 35.0385 98.0177 35.5164 97.742 36.0182L96.979 37.3734C96.9007 37.4987 96.8 37.5619 96.675 37.5619H96.4258C96.3429 37.5619 96.2825 37.5499 96.2431 37.5264C96.2042 37.5029 96.1634 37.4522 96.1222 37.3734L95.3432 36.0099C95.1046 35.6025 94.9045 35.1265 94.7433 34.5837H94.6888C94.7982 35.1164 94.8527 35.6389 94.8527 36.1509V38.5333C94.8527 38.6328 94.833 38.7019 94.7941 38.7411C94.7552 38.7803 94.686 38.7996 94.588 38.7996H94.2139C94.1149 38.7996 94.0449 38.7803 94.0032 38.7411C93.9615 38.7019 93.9409 38.6328 93.9409 38.5333V33.5026C93.9409 33.4035 93.9615 33.3344 94.0032 33.2953C94.0449 33.2556 94.1149 33.2363 94.2139 33.2363H94.5564C94.6654 33.2363 94.7446 33.2492 94.7946 33.2754C94.8431 33.3017 94.8894 33.3565 94.931 33.4399L96.5513 36.3555L98.1711 33.4473C98.2178 33.3588 98.2627 33.3012 98.3076 33.275C98.3511 33.2487 98.4253 33.2358 98.5288 33.2358H98.9107V33.2363Z" fill="#77BC1F"/>
<path d="M103.662 33.2363C103.761 33.2363 103.831 33.2556 103.873 33.2953C103.914 33.3344 103.936 33.4035 103.936 33.5026V33.8869C103.936 33.986 103.914 34.0551 103.873 34.0943C103.831 34.1335 103.761 34.1533 103.662 34.1533H101.279V35.5247H103.296C103.395 35.5247 103.463 35.5445 103.502 35.5836C103.541 35.6228 103.561 35.6919 103.561 35.7915V36.1753C103.561 36.2748 103.541 36.3435 103.502 36.3831C103.463 36.4223 103.395 36.4417 103.296 36.4417H101.279V37.884H103.748C103.847 37.884 103.916 37.9033 103.955 37.9425C103.994 37.9817 104.013 38.0513 104.013 38.1503V38.5342C104.013 38.6337 103.994 38.7028 103.955 38.742C103.916 38.7812 103.847 38.8005 103.748 38.8005H100.57C100.471 38.8005 100.402 38.7812 100.36 38.742C100.319 38.7028 100.298 38.6337 100.298 38.5342V33.5026C100.298 33.4035 100.319 33.3344 100.36 33.2953C100.402 33.2556 100.471 33.2363 100.57 33.2363H103.662Z" fill="#77BC1F"/>
<path d="M108.842 33.2363C108.94 33.2363 109.01 33.2556 109.052 33.2953C109.094 33.3344 109.115 33.4035 109.115 33.5026V38.5342C109.115 38.6337 109.094 38.7028 109.052 38.742C109.01 38.7812 108.94 38.8005 108.842 38.8005H108.397C108.299 38.8005 108.23 38.7812 108.191 38.742C108.152 38.7028 108.133 38.6337 108.133 38.5342V36.4417H105.827V38.5342C105.827 38.6337 105.808 38.7028 105.769 38.742C105.73 38.7812 105.662 38.8005 105.563 38.8005H105.118C105.02 38.8005 104.95 38.7812 104.908 38.742C104.867 38.7028 104.846 38.6337 104.846 38.5342V33.5026C104.846 33.4035 104.867 33.3344 104.908 33.2953C104.95 33.2556 105.02 33.2363 105.118 33.2363H105.563C105.662 33.2363 105.73 33.2556 105.769 33.2953C105.808 33.3344 105.827 33.4035 105.827 33.5026V35.5247H108.133V33.5026C108.133 33.4035 108.152 33.3344 108.191 33.2953C108.23 33.2556 108.299 33.2363 108.397 33.2363H108.842Z" fill="#77BC1F"/>
<path d="M113.725 33.2363C113.824 33.2363 113.893 33.2556 113.932 33.2953C113.97 33.3344 113.99 33.4035 113.99 33.5026V33.8869C113.99 33.986 113.97 34.0551 113.932 34.0943C113.893 34.1335 113.824 34.1533 113.725 34.1533H112.385V38.5342C112.385 38.6337 112.366 38.7028 112.327 38.742C112.288 38.7812 112.219 38.8005 112.121 38.8005H111.67C111.57 38.8005 111.502 38.7812 111.463 38.742C111.424 38.7028 111.405 38.6337 111.405 38.5342V34.1533H110.064C109.966 34.1533 109.898 34.1335 109.859 34.0943C109.82 34.0551 109.8 33.986 109.8 33.8869V33.5026C109.8 33.4035 109.82 33.3344 109.859 33.2953C109.898 33.2556 109.966 33.2363 110.064 33.2363H113.725Z" fill="#77BC1F"/>
</svg>
