<svg width="67" height="69" viewBox="0 0 67 69" fill="none" xmlns="http://www.w3.org/2000/svg">
<g filter="url(#filter0_d)">
<rect x="10" y="6" width="47" height="47" rx="23.5" fill="#63AB36"/>
</g>
<g clip-path="url(#clip0)">
<path d="M30.8152 22.8913H28.337V20.6196C28.337 20.2773 28.0594 20 27.7174 20C27.3754 20 27.0978 20.2773 27.0978 20.6196V22.8913H24.6196C24.2775 22.8913 24 23.1686 24 23.5109V38.3805C24 38.7227 24.2775 39 24.6196 39H27.7174V25.9891C27.7174 24.7026 28.9999 23.7974 30.2182 24.2448L31.4348 24.6939V23.5109C31.4348 23.1686 31.1572 22.8913 30.8152 22.8913ZM26.4783 36.5217H25.2391V35.2826H26.4782V36.5217H26.4783ZM26.4783 34.0435H25.2391V32.8044H26.4782V34.0435H26.4783ZM26.4783 31.5652H25.2391V30.3261H26.4782V31.5652H26.4783ZM26.4783 29.087H25.2391V27.8479H26.4782V29.087H26.4783ZM26.4783 26.6087H25.2391V25.3696H26.4782V26.6087H26.4783Z" fill="white"/>
<path d="M29.7904 25.4078C29.3846 25.2587 28.9562 25.5595 28.9562 25.9891V38.3804C28.9562 38.7226 29.2338 39 29.5758 39H33.0867V26.6248L29.7904 25.4078ZM31.8475 36.5216H30.6084V35.2825H31.8475V36.5216ZM31.8475 34.0434H30.6084V32.8043H31.8475V34.0434ZM31.8475 31.5651H30.6084V30.326H31.8475V31.5651Z" fill="white"/>
<path d="M42.3807 24.1304H41.7611V22.2717C41.7611 21.9295 41.4836 21.6521 41.1415 21.6521H39.2828V20.6196C39.2829 20.2773 39.0054 20 38.6633 20C38.3212 20 38.0437 20.2773 38.0437 20.6196V21.6522H36.185C35.843 21.6522 35.5654 21.9295 35.5654 22.2718V24.1305H34.9459C34.6038 24.1305 34.3263 24.4078 34.3263 24.75V38.3805C34.3263 38.7227 34.6038 39 34.9459 39H42.3807C42.7227 39 43.0002 38.7227 43.0002 38.3805V24.75C43.0003 24.4077 42.7227 24.1304 42.3807 24.1304ZM38.0438 36.5217H36.8046V35.2826H38.0438V36.5217ZM38.0438 34.0435H36.8046V32.8044H38.0438V34.0435ZM38.0438 31.5652H36.8046V30.3261H38.0438V31.5652ZM38.0438 29.087H36.8046V27.8479H38.0438V29.087ZM40.522 36.5217H39.2829V35.2826H40.522V36.5217ZM40.522 34.0435H39.2829V32.8044H40.522V34.0435ZM40.522 31.5652H39.2829V30.3261H40.522V31.5652ZM40.522 29.087H39.2829V27.8479H40.522V29.087Z" fill="white"/>
</g>
<path d="M20.1668 48.12C16.3084 43.8092 23.9241 39 29.7095 39H37.2905C43.0759 39 50.6916 43.8092 46.8332 48.12C45.1139 50.0408 43.2959 50.8153 40.3715 51.4282C36.9338 52.1488 33.7248 54.3946 33.5062 57.9002L33.5 58L33.4938 57.9002C33.2752 54.3946 30.0662 52.1488 26.6285 51.4282C23.7041 50.8153 21.8861 50.0408 20.1668 48.12Z" fill="#63AB36"/>
<rect x="29" y="60" width="9" height="9" rx="4.5" fill="white"/>
<rect x="32" y="63" width="3" height="3" rx="1.5" fill="#63AB36"/>
<defs>
<filter id="filter0_d" x="0" y="0" width="67" height="67" filterUnits="userSpaceOnUse" color-interpolation-filters="sRGB">
<feFlood flood-opacity="0" result="BackgroundImageFix"/>
<feColorMatrix in="SourceAlpha" type="matrix" values="0 0 0 0 0 0 0 0 0 0 0 0 0 0 0 0 0 0 127 0"/>
<feOffset dy="4"/>
<feGaussianBlur stdDeviation="5"/>
<feColorMatrix type="matrix" values="0 0 0 0 0.250312 0 0 0 0 0.741667 0 0 0 0 0.299448 0 0 0 0.2 0"/>
<feBlend mode="normal" in2="BackgroundImageFix" result="effect1_dropShadow"/>
<feBlend mode="normal" in="SourceGraphic" in2="effect1_dropShadow" result="shape"/>
</filter>
<clipPath id="clip0">
<rect width="19" height="19" fill="white" transform="translate(24 20)"/>
</clipPath>
</defs>
</svg>
