<svg width="40" height="30" viewBox="0 0 40 30" fill="none" xmlns="http://www.w3.org/2000/svg">
<rect width="40" height="30" rx="3" fill="white"/>
<path d="M28.4791 9.5H27.3334V6.75C27.3334 5.23384 26.0995 4 24.5834 4H15.4166C13.9005 4 12.6666 5.23384 12.6666 6.75V9.5H11.5209C10.1284 9.5 9 10.6284 9 12.0209V17.9791C9 19.3716 10.1284 20.5 11.5209 20.5H12.6666V23.25C12.6666 24.7688 13.8978 26 15.4166 26H24.5834C26.1022 26 27.3334 24.7688 27.3334 23.25V20.5H28.4791C29.8716 20.5 31 19.3716 31 17.9791V12.0209C31 10.6284 29.8716 9.5 28.4791 9.5ZM13.5 6.75C13.5 5.5 14.5 5 15.4166 5H24.5834C25.5 5 26.5 5.5 26.5 6.75V9.5H13.5V6.75ZM26.5 23.25C26.5 24.5 25.5 25 24.5834 25H15.4166C14.5 25 13.5 24.5 13.5 23.25V17.75H26.5V23.25Z" fill="black"/>
<path d="M16.5 20C16.5 19.7239 16.7239 19.5 17 19.5H23C23.2761 19.5 23.5 19.7239 23.5 20C23.5 20.2761 23.2761 20.5 23 20.5H17C16.7239 20.5 16.5 20.2761 16.5 20Z" fill="black"/>
<path d="M16.5 22.5C16.5 22.2239 16.7239 22 17 22H23C23.2761 22 23.5 22.2239 23.5 22.5C23.5 22.7761 23.2761 23 23 23H17C16.7239 23 16.5 22.7761 16.5 22.5Z" fill="black"/>
<circle cx="28" cy="13" r="1" fill="white"/>
</svg>
