<svg width="40" height="30" viewBox="0 0 40 30" fill="none" xmlns="http://www.w3.org/2000/svg">
<rect width="40" height="30" rx="3" fill="white"/>
<path d="M26.4429 18.2656C25.1694 18.2656 24.038 18.8845 23.3329 19.837L17.2627 16.7349C17.3645 16.3889 17.4194 16.023 17.4194 15.6445C17.4194 15.1319 17.3189 14.6423 17.137 14.1942L23.4989 10.3718C24.2088 11.205 25.2651 11.7344 26.4429 11.7344C28.5752 11.7344 30.3101 9.99955 30.3101 7.86719C30.3101 5.73482 28.5752 4 26.4429 4C24.3105 4 22.5757 5.73482 22.5757 7.86719C22.5757 8.36004 22.6685 8.83154 22.8374 9.26539L16.4595 13.0973C15.7502 12.2888 14.7099 11.7773 13.5522 11.7773C11.4199 11.7773 9.68506 13.5122 9.68506 15.6445C9.68506 17.7769 11.4199 19.5117 13.5522 19.5117C14.8466 19.5117 15.9942 18.8725 16.6966 17.8933L22.7491 20.9864C22.6364 21.3488 22.5757 21.7338 22.5757 22.1328C22.5757 24.2652 24.3105 26 26.4429 26C28.5752 26 30.3101 24.2652 30.3101 22.1328C30.3101 20.0004 28.5752 18.2656 26.4429 18.2656ZM26.4429 5.28906C27.8644 5.28906 29.021 6.44561 29.021 7.86719C29.021 9.28877 27.8644 10.4453 26.4429 10.4453C25.0213 10.4453 23.8647 9.28877 23.8647 7.86719C23.8647 6.44561 25.0213 5.28906 26.4429 5.28906ZM13.5522 18.2227C12.1307 18.2227 10.9741 17.0661 10.9741 15.6445C10.9741 14.223 12.1307 13.0664 13.5522 13.0664C14.9738 13.0664 16.1304 14.223 16.1304 15.6445C16.1304 17.0661 14.9738 18.2227 13.5522 18.2227ZM26.4429 24.7109C25.0213 24.7109 23.8647 23.5544 23.8647 22.1328C23.8647 20.7112 25.0213 19.5547 26.4429 19.5547C27.8644 19.5547 29.021 20.7112 29.021 22.1328C29.021 23.5544 27.8644 24.7109 26.4429 24.7109Z" fill="black"/>
</svg>
