<svg width="25" height="25" viewBox="0 0 25 25" fill="none" xmlns="http://www.w3.org/2000/svg">
<path fill-rule="evenodd" clip-rule="evenodd" d="M19.7129 14.1301C20.3763 14.8169 21.0765 15.463 21.6715 16.219C21.9344 16.5549 22.1832 16.9016 22.3736 17.2915C22.6433 17.8457 22.399 18.4556 21.9303 18.4887L19.0166 18.4873C18.2652 18.5534 17.6657 18.2327 17.1616 17.6879C16.7582 17.2523 16.3846 16.7886 15.9967 16.3383C15.8377 16.1542 15.6713 15.981 15.4724 15.8441C15.0747 15.5704 14.7294 15.6542 14.5021 16.094C14.2706 16.5414 14.2181 17.0367 14.1954 17.5353C14.1642 18.2627 13.9568 18.454 13.2676 18.4873C11.7947 18.5609 10.3969 18.3246 9.09838 17.5369C7.95355 16.8424 7.06579 15.862 6.29308 14.7521C4.78861 12.5909 3.63649 10.216 2.60101 7.77462C2.36793 7.22457 2.53838 6.92931 3.1108 6.91886C4.06132 6.89928 5.01171 6.90067 5.96334 6.91746C6.34966 6.92346 6.60541 7.15838 6.75458 7.54533C7.26884 8.886 7.89809 10.1615 8.68794 11.3438C8.89829 11.6586 9.11277 11.9734 9.4182 12.1949C9.75609 12.4402 10.0133 12.3589 10.1723 11.9598C10.2732 11.7068 10.3173 11.4343 10.3401 11.1632C10.4154 10.2308 10.4253 9.30005 10.2932 8.37093C10.2121 7.79106 9.90407 7.41568 9.35834 7.30595C9.07985 7.25 9.12131 7.14013 9.25615 6.9716C9.49035 6.68093 9.71062 6.5 10.1497 6.5H13.4426C13.961 6.60848 14.0761 6.85539 14.1471 7.40843L14.1499 11.2865C14.1442 11.5006 14.2508 12.1359 14.6145 12.2776C14.9056 12.3785 15.0975 12.1316 15.2721 11.9359C16.0605 11.0487 16.6232 10.0002 17.1259 8.91456C17.349 8.43718 17.5408 7.94141 17.7267 7.44605C17.8644 7.07847 18.0806 6.89761 18.4711 6.90562L21.6403 6.90862C21.7343 6.90862 21.8294 6.91008 21.9204 6.92659C22.4544 7.02308 22.6007 7.26665 22.4358 7.81955C22.1759 8.68702 21.6703 9.40992 21.1759 10.1362C20.6473 10.9115 20.0821 11.6603 19.558 12.4403C19.0764 13.1525 19.1147 13.5115 19.7129 14.1301Z" fill="#7E838D"/>
</svg>
