<svg width="12" height="20" viewBox="0 0 12 20" fill="none" xmlns="http://www.w3.org/2000/svg">
<path d="M5.54984 3.84058C6.61038 3.84058 7.47013 2.98084 7.47013 1.92029C7.47013 0.859743 6.61038 0 5.54984 0C4.48929 0 3.62955 0.859743 3.62955 1.92029C3.62955 2.98084 4.48929 3.84058 5.54984 3.84058Z" fill="#63AB36"/>
<path d="M10.8338 8.59213C9.25239 7.67674 7.95488 6.44025 6.86267 4.98564C6.17636 4.02049 4.36185 4.07087 3.62453 4.95528C2.5029 6.04656 1.5512 7.17132 0.796355 8.2967C0.487782 8.75768 0.61046 9.3814 1.07113 9.68998C1.24294 9.80514 1.43666 9.86022 1.62913 9.86022C1.95272 9.86022 2.27069 9.70406 2.46409 9.41489C2.79551 8.92136 3.17137 8.42627 3.5876 7.93336C3.57164 8.97644 3.6239 10.8586 3.65019 11.7045C3.65895 11.9861 3.5948 12.2615 3.46398 12.5116C2.42873 14.4885 1.76651 16.359 1.09429 18.6474C0.929674 19.206 1.24983 19.7922 1.80814 19.9565C1.93457 19.9937 2.06226 20.0062 2.18556 19.9968C2.61055 19.9643 2.99048 19.6748 3.11754 19.2423C3.73782 17.1324 4.33713 15.4239 5.27192 13.6151C5.31949 13.6169 5.36706 13.6169 5.41525 13.6147C6.01206 15.3955 6.60918 17.1771 7.20692 18.9578C7.64099 20.2556 9.65485 19.5815 9.21953 18.2834C8.5664 16.3365 7.9142 14.3906 7.26325 12.444C7.22538 12.3323 7.13369 11.8947 7.12086 11.752C7.0132 10.5528 6.97408 9.35731 6.98566 8.16025C7.90199 9.03809 8.91816 9.79951 10.047 10.4536C11.1727 11.107 11.9444 9.23588 10.8338 8.59213Z" fill="#63AB36"/>
</svg>
