<svg width="25" height="25" viewBox="0 0 25 25" fill="none" xmlns="http://www.w3.org/2000/svg">
<path d="M21.7205 6.7018C20.9985 5.84819 19.6656 5.5 17.1201 5.5H7.87974C5.27594 5.5 3.92045 5.87065 3.20123 6.77945C2.5 7.66553 2.5 8.97109 2.5 10.778V14.222C2.5 17.7226 3.332 19.5 7.87974 19.5H17.1201C19.3276 19.5 20.5508 19.1927 21.3422 18.4394C22.1537 17.6669 22.5 16.4057 22.5 14.222V10.778C22.5 8.87246 22.4457 7.55919 21.7205 6.7018ZM15.3401 12.9755L11.1441 15.1568C11.0503 15.2055 10.9477 15.2297 10.8452 15.2297C10.7292 15.2297 10.6135 15.1987 10.511 15.1369C10.3179 15.0206 10.2001 14.8125 10.2001 14.588V10.2395C10.2001 10.0154 10.3176 9.8075 10.5103 9.69109C10.703 9.57469 10.9426 9.56673 11.1426 9.67004L15.3386 11.8372C15.5521 11.9475 15.6861 12.1667 15.6865 12.4059C15.6867 12.6452 15.5532 12.8647 15.3401 12.9755Z" fill="#7E838D"/>
</svg>
